<svg width="600" height="600" viewBox="0 0 600 600" fill="none" xmlns="http://www.w3.org/2000/svg">
<g clip-path="url(#clip0_1406_85)">
<path d="M600 0H0V600H600V0Z" fill="#683D08"/>
<path d="M0 -327.778C21.6667 -314.815 91.6667 -267.037 130 -250C168.333 -232.963 190 -245.556 230 -225.556C270 -205.556 326.667 -155.926 370 -130C413.333 -104.074 451.667 -87.0371 490 -70.0001C528.333 -52.963 581.667 -34.8149 600 -27.7778V600H0V-327.778Z" fill="url(#paint0_linear_1406_85)"/>
<path d="M0 -200.822C23.3333 -184.763 91.6667 -127.696 140 -104.466C188.333 -81.236 240 -87.6358 290 -61.4429C340 -35.25 388.333 23.5354 440 52.6912C491.667 81.847 573.333 103.359 600 113.492V600H0V-200.822Z" fill="url(#paint1_linear_1406_85)"/>
<path d="M0 -129.422C15 -123.257 55 -107.723 90 -92.4286C125 -77.1344 176.667 -55.9143 210 -37.6572C243.333 -19.4 256.667 -7.06881 290 17.1143C323.333 41.2973 376.667 89.1841 410 107.441C443.333 125.698 458.333 111.363 490 126.657C521.667 141.951 581.667 187.115 600 199.206V600H0V-129.422Z" fill="url(#paint2_linear_1406_85)"/>
<path d="M0 -113.578C15 -107.015 58.3333 -96.2137 90 -74.1984C121.667 -52.183 153.333 -6.464 190 18.5143C226.667 43.4926 276.667 62.545 310 75.6714C343.333 88.7979 360 78.2207 390 97.273C420 116.325 455 167.97 490 189.986C525 212.001 581.667 222.802 600 229.365V600H0V-113.578Z" fill="url(#paint3_linear_1406_85)"/>
<path d="M0 -42.1777C21.6667 -33.2321 91.6667 -9.35827 130 11.4959C168.333 32.3501 193.333 59.1302 230 82.9473C266.667 106.764 310 124.656 350 154.399C390 184.142 428.333 234.626 470 261.406C511.667 288.186 578.333 306.134 600 315.079V600H0V-42.1777Z" fill="url(#paint4_linear_1406_85)"/>
<path d="M0 84.7778C21.6667 100.127 91.6667 155.061 130 176.87C168.333 198.678 193.333 190.857 230 215.629C266.667 240.4 306.667 294.801 350 325.498C393.333 356.196 448.333 378.004 490 399.813C531.667 421.621 581.667 446.927 600 456.349V600H0V84.7778Z" fill="url(#paint5_linear_1406_85)"/>
<path d="M0 156.178C10.8333 161.254 38.3333 167.594 65 186.636C91.6667 205.677 135 254.348 160 270.427C185 286.506 193.333 267.029 215 283.107C236.667 299.186 265 350.82 290 366.898C315 382.977 340 363.5 365 379.579C390 395.657 411.667 447.291 440 463.37C468.333 479.448 508.333 462.934 535 476.05C561.667 489.166 589.167 531.061 600 542.063V600H0V156.178Z" fill="url(#paint6_linear_1406_85)"/>
</g>
<defs>
<linearGradient id="paint0_linear_1406_85" x1="300" y1="-327.778" x2="300" y2="600" gradientUnits="userSpaceOnUse">
<stop stop-color="#BC531A"/>
<stop offset="1" stop-color="#DCB841"/>
</linearGradient>
<linearGradient id="paint1_linear_1406_85" x1="300" y1="-200.822" x2="300" y2="600" gradientUnits="userSpaceOnUse">
<stop stop-color="#D7AE30"/>
<stop offset="1" stop-color="#988724"/>
</linearGradient>
<linearGradient id="paint2_linear_1406_85" x1="300" y1="-129.422" x2="300" y2="600" gradientUnits="userSpaceOnUse">
<stop stop-color="#BA9346"/>
<stop offset="1" stop-color="#C1AB51"/>
</linearGradient>
<linearGradient id="paint3_linear_1406_85" x1="300" y1="-113.578" x2="300" y2="600" gradientUnits="userSpaceOnUse">
<stop stop-color="#FCECD9"/>
<stop offset="1" stop-color="#F1D04B"/>
</linearGradient>
<linearGradient id="paint4_linear_1406_85" x1="300" y1="-42.1777" x2="300" y2="600" gradientUnits="userSpaceOnUse">
<stop stop-color="#FCFAD9"/>
<stop offset="1" stop-color="#F1E64B"/>
</linearGradient>
<linearGradient id="paint5_linear_1406_85" x1="300" y1="84.7778" x2="300" y2="600" gradientUnits="userSpaceOnUse">
<stop stop-color="#FCECD9"/>
<stop offset="1" stop-color="#F1D04B"/>
</linearGradient>
<linearGradient id="paint6_linear_1406_85" x1="300" y1="156.178" x2="300" y2="600" gradientUnits="userSpaceOnUse">
<stop stop-color="#FCE5D9"/>
<stop offset="1" stop-color="#E3F14B"/>
</linearGradient>
<clipPath id="clip0_1406_85">
<rect width="600" height="600" rx="300" fill="white"/>
</clipPath>
</defs>
</svg>
