<svg width="600" height="600" viewBox="0 0 600 600" fill="none" xmlns="http://www.w3.org/2000/svg">
<g clip-path="url(#clip0_1406_62)">
<path d="M600 0H0V600H600V0Z" fill="#121D54"/>
<path d="M0 -327.778C12.619 -323.598 48.8095 -319.947 75.7143 -302.698C102.619 -285.45 129.524 -244.497 161.429 -224.286C193.333 -204.074 235.238 -195.714 267.143 -181.429C299.048 -167.143 327.619 -152.857 352.857 -138.571C378.095 -124.286 390 -104.074 418.571 -95.7143C447.143 -87.3545 494.048 -99.7355 524.286 -88.4127C554.524 -77.09 587.381 -37.8836 600 -27.7778V600H0V-327.778Z" fill="url(#paint0_linear_1406_62)"/>
<path d="M0 -256.378C15 -244.684 58.3333 -200.713 90 -186.214C121.667 -171.715 153.333 -186.846 190 -169.384C226.667 -151.922 273.333 -104.831 310 -81.4429C346.667 -58.055 376.667 -40.5931 410 -29.0572C443.333 -17.5212 478.333 -26.7259 510 -12.227C541.667 2.27194 585 46.2426 600 57.9365V600H0V-256.378Z" fill="url(#paint1_linear_1406_62)"/>
<path d="M0 -129.422C15.9524 -118.635 65.4762 -83.3095 95.7143 -64.6975C125.952 -46.0856 156.19 -33.3996 181.429 -17.7506C206.667 -2.10161 221.905 13.5474 247.143 29.1964C272.381 44.8453 304.286 66.4202 332.857 76.1433C361.429 85.8663 386.667 71.8857 418.571 87.5347C450.476 103.184 494.048 151.425 524.286 170.037C554.524 188.649 587.381 194.345 600 199.206V600H0V-129.422Z" fill="url(#paint2_linear_1406_62)"/>
<path d="M0 -113.578C12.619 -102.449 45.4762 -66.1017 75.7143 -46.8081C105.952 -27.5146 149.524 -8.22098 181.429 2.1837C213.333 12.5884 238.571 -0.71063 267.143 15.62C295.714 31.9506 327.619 77.9108 352.857 100.167C378.095 122.424 393.333 132.829 418.571 149.159C443.81 165.49 474.048 184.783 504.286 198.151C534.524 211.519 584.048 224.163 600 229.365V600H0V-113.578Z" fill="url(#paint3_linear_1406_62)"/>
<path d="M0 -42.1777C12.619 -30.7086 48.8095 6.66156 75.7143 26.6368C102.619 46.612 132.857 60.6613 161.429 77.6735C190 94.6857 215.238 117.624 247.143 128.71C279.048 139.797 320.952 127.179 352.857 144.191C384.762 161.204 413.333 213.771 438.571 230.784C463.81 247.796 477.381 232.216 504.286 246.265C531.19 260.314 584.048 303.61 600 315.079V600H0V-42.1777Z" fill="url(#paint4_linear_1406_62)"/>
<path d="M0 84.7778C15.9524 90.6618 65.4762 105.351 95.7143 120.082C125.952 134.813 156.19 155.469 181.429 173.163C206.667 190.857 221.905 208.551 247.143 226.245C272.381 243.939 300.952 255.707 332.857 279.327C364.762 302.946 410 350.27 438.571 367.964C467.143 385.658 477.381 370.759 504.286 385.49C531.19 400.221 584.048 444.539 600 456.349V600H0V84.7778Z" fill="url(#paint5_linear_1406_62)"/>
<path d="M0 100.622C12.619 106.847 45.4762 116.632 75.7143 137.971C105.952 159.309 149.524 210.278 181.429 228.653C213.333 247.029 241.905 229.848 267.143 248.224C292.381 266.6 307.619 314.605 332.857 338.906C358.095 363.208 386.667 375.657 418.571 394.033C450.476 412.408 494.048 433.747 524.286 449.159C554.524 464.572 587.381 480.283 600 486.508V600H0V100.622Z" fill="url(#paint6_linear_1406_62)"/>
</g>
<defs>
<linearGradient id="paint0_linear_1406_62" x1="300" y1="-327.778" x2="300" y2="600" gradientUnits="userSpaceOnUse">
<stop stop-color="#2F6D9D"/>
<stop offset="1" stop-color="#180C27"/>
</linearGradient>
<linearGradient id="paint1_linear_1406_62" x1="300" y1="-256.378" x2="300" y2="600" gradientUnits="userSpaceOnUse">
<stop stop-color="#2F6D9D"/>
<stop offset="1" stop-color="#180C27"/>
</linearGradient>
<linearGradient id="paint2_linear_1406_62" x1="300" y1="-129.422" x2="300" y2="600" gradientUnits="userSpaceOnUse">
<stop stop-color="#2F419D"/>
<stop offset="1" stop-color="#230C27"/>
</linearGradient>
<linearGradient id="paint3_linear_1406_62" x1="300" y1="-113.578" x2="300" y2="600" gradientUnits="userSpaceOnUse">
<stop stop-color="#D5DBF6"/>
<stop offset="1" stop-color="#C558DA"/>
</linearGradient>
<linearGradient id="paint4_linear_1406_62" x1="300" y1="-42.1777" x2="300" y2="600" gradientUnits="userSpaceOnUse">
<stop stop-color="#D5EEF6"/>
<stop offset="1" stop-color="#7658DA"/>
</linearGradient>
<linearGradient id="paint5_linear_1406_62" x1="300" y1="84.7778" x2="300" y2="600" gradientUnits="userSpaceOnUse">
<stop stop-color="#D5E8F6"/>
<stop offset="1" stop-color="#9058DA"/>
</linearGradient>
<linearGradient id="paint6_linear_1406_62" x1="300" y1="100.622" x2="300" y2="600" gradientUnits="userSpaceOnUse">
<stop stop-color="#D5E8F6"/>
<stop offset="1" stop-color="#9058DA"/>
</linearGradient>
<clipPath id="clip0_1406_62">
<rect width="600" height="600" rx="300" fill="white"/>
</clipPath>
</defs>
</svg>
